<svg xmlns="http://www.w3.org/2000/svg" xml:space="preserve" width="468.113" height="59.231"><defs><clipPath id="a" clipPathUnits="userSpaceOnUse"><path d="M0 44.423h351.085V0H0Z"/></clipPath></defs><g clip-path="url(#a)" transform="matrix(1.33333 0 0 -1.33333 0 59.23)"><path d="M0 0a4.593 4.593 0 1 0-9.187 0A4.593 4.593 0 0 0 0 0" style="fill:#2e7de0;fill-opacity:1;fill-rule:nonzero;stroke:none" transform="translate(44.25 39.426)"/><path d="m0 0-21.395-21.394a4.593 4.593 0 1 0-6.496 6.496L-6.497 6.497a4.594 4.594 0 0 0 6.497 0A4.596 4.596 0 0 0 0 0" style="fill:#2e7de0;fill-opacity:1;fill-rule:nonzero;stroke:none" transform="translate(29.785 23.696)"/><path d="M0 0a4.594 4.594 0 1 0 9.189 0A4.594 4.594 0 0 0 0 0" style="fill:#2e7de0;fill-opacity:1;fill-rule:nonzero;stroke:none" transform="translate(45.117 5.55)"/><path d="m0 0 21.394 21.395a4.594 4.594 0 0 0 6.497-6.497L6.496-6.497A4.593 4.593 0 1 0 0 0" style="fill:#2e7de0;fill-opacity:1;fill-rule:nonzero;stroke:none" transform="translate(59.581 21.28)"/><path d="m0 0-33.781-33.781a4.593 4.593 0 1 0-6.496 6.496l33.78 33.781A4.594 4.594 0 0 0 0 0" style="fill:#2e7de0;fill-opacity:1;fill-rule:nonzero;stroke:none" transform="translate(64.064 36.083)"/><path d="M0 0c2.329-2.213 3.494-5.493 3.494-9.842v-17.209h-7.161v16.309c0 2.624-.63 4.602-1.89 5.933-1.26 1.331-3.056 1.997-5.385 1.997-2.635 0-4.717-.779-6.244-2.334-1.528-1.556-2.292-3.796-2.292-6.721v-15.184h-7.16V2.98h6.817V-.9c1.183 1.387 2.673 2.437 4.468 3.15 1.795.711 3.818 1.068 6.073 1.068C-5.424 3.318-2.331 2.212 0 0" style="fill:#2e7de0;fill-opacity:1;fill-rule:nonzero;stroke:none" transform="translate(122.701 34.166)"/><path d="M0 0c-1.585-1.332-2.549-3.103-2.893-5.315h17.358c-.306 2.174-1.242 3.937-2.807 5.287-1.567 1.349-3.514 2.024-5.844 2.024C3.523 1.996 1.584 1.33 0 0m21.167-9.983H-2.835c.419-2.212 1.518-3.965 3.293-5.258 1.776-1.294 3.982-1.94 6.617-1.94 3.36 0 6.129 1.087 8.306 3.262l3.839-4.331c-1.375-1.612-3.114-2.831-5.214-3.655-2.1-.825-4.467-1.238-7.103-1.238-3.361 0-6.321.656-8.879 1.969-2.559 1.312-4.536 3.139-5.93 5.483-1.394 2.343-2.091 4.996-2.091 7.958 0 2.924.678 5.558 2.034 7.901 1.356 2.343 3.237 4.171 5.643 5.484C.086 6.964 2.797 7.62 5.814 7.62c2.979 0 5.643-.646 7.992-1.94A13.866 13.866 0 0 0 19.305.225c1.318-2.344 1.977-5.053 1.977-8.127 0-.488-.038-1.181-.115-2.081" style="fill:#2e7de0;fill-opacity:1;fill-rule:nonzero;stroke:none" transform="translate(143.065 29.864)"/><path d="M0 0v-6.692a9.3 9.3 0 0 1-1.661.169c-2.788 0-4.965-.798-6.53-2.391-1.567-1.594-2.349-3.89-2.349-6.889v-14.566h-7.161V-.337h6.817v-4.387C-8.822-1.575-5.194 0 0 0" style="fill:#2e7de0;fill-opacity:1;fill-rule:nonzero;stroke:none" transform="translate(188.922 37.484)"/><path d="M0 0c1.718 1.724 2.578 3.993 2.578 6.805S1.718 11.885 0 13.61c-1.718 1.724-3.895 2.587-6.531 2.587-2.635 0-4.803-.863-6.502-2.587-1.699-1.725-2.549-3.993-2.549-6.805s.85-5.081 2.549-6.805c1.699-1.725 3.867-2.587 6.502-2.587C-3.895-2.587-1.718-1.725 0 0m-14.895-6.636c-2.482 1.312-4.42 3.139-5.814 5.483C-22.104 1.19-22.8 3.843-22.8 6.805c0 2.961.696 5.605 2.091 7.93 1.394 2.324 3.332 4.142 5.814 5.455 2.482 1.312 5.271 1.968 8.364 1.968 3.131 0 5.938-.656 8.422-1.968 2.482-1.313 4.42-3.131 5.815-5.455 1.393-2.325 2.09-4.969 2.09-7.93 0-2.962-.697-5.615-2.09-7.958-1.395-2.344-3.333-4.171-5.815-5.483C-.593-7.949-3.4-8.604-6.531-8.604c-3.093 0-5.882.655-8.364 1.968" style="fill:#2e7de0;fill-opacity:1;fill-rule:nonzero;stroke:none" transform="translate(214.988 15.326)"/><path d="M0 0c2.157-2.137 3.237-5.286 3.237-9.448v-17.153H-.831v16.759c0 3.074-.755 5.418-2.263 7.03C-4.603-1.2-6.73-.394-9.481-.394c-3.131 0-5.595-.947-7.39-2.839-1.796-1.894-2.692-4.509-2.692-7.846v-15.522h-4.068v16.759c0 3.074-.755 5.418-2.263 7.03-1.509 1.612-3.658 2.418-6.445 2.418-3.094 0-5.547-.947-7.361-2.839-1.814-1.894-2.721-4.509-2.721-7.846v-15.522h-4.067V2.981h3.895v-5.399c1.07 1.799 2.559 3.186 4.469 4.162 1.909.974 4.104 1.462 6.588 1.462 2.52 0 4.706-.526 6.559-1.575 1.852-1.05 3.236-2.606 4.153-4.668 1.108 1.949 2.701 3.477 4.783 4.584 2.082 1.105 4.459 1.659 7.133 1.659C-5.128 3.206-2.158 2.137 0 0" style="fill:#000;fill-opacity:1;fill-rule:nonzero;stroke:none" transform="translate(279.12 33.716)"/><path d="M0 0c1.643 1.031 2.865 2.521 3.667 4.471v4.837h-9.452c-5.155 0-7.734-1.764-7.734-5.287 0-1.725.667-3.084 2.005-4.078 1.337-.993 3.208-1.49 5.615-1.49C-3.608-1.547-1.642-1.032 0 0m4.584 22.496c2.1-1.932 3.151-4.79 3.151-8.577V-4.415H3.839V.197c-.917-1.538-2.263-2.738-4.038-3.6-1.777-.863-3.887-1.293-6.331-1.293-3.361 0-6.034.787-8.02 2.362-1.986 1.575-2.978 3.655-2.978 6.242 0 2.512.924 4.536 2.778 6.074 1.852 1.537 4.802 2.306 8.851 2.306h9.566v1.8c0 2.549-.726 4.489-2.177 5.821-1.452 1.33-3.571 1.996-6.358 1.996-1.91 0-3.744-.309-5.5-.928-1.757-.619-3.266-1.472-4.526-2.559l-1.833 2.981c1.528 1.274 3.361 2.258 5.499 2.953 2.139.693 4.392 1.04 6.761 1.04 3.933 0 6.95-.966 9.051-2.896" style="fill:#000;fill-opacity:1;fill-rule:nonzero;stroke:none" transform="translate(308.42 11.53)"/><path d="m0 0-9.566 12.373L-19.191 0h-4.582l11.915 15.185-11.343 14.397h4.583l9.052-11.585 9.05 11.585h4.469L-7.39 15.185 4.641 0Z" style="fill:#000;fill-opacity:1;fill-rule:nonzero;stroke:none" transform="translate(346.402 7.115)"/></g></svg>